<?xml version="1.0" encoding="utf-8"?>
<!-- Generator: Adobe Illustrator 16.0.0, SVG Export Plug-In . SVG Version: 6.00 Build 0)  -->
<!DOCTYPE svg PUBLIC "-//W3C//DTD SVG 1.1//EN" "http://www.w3.org/Graphics/SVG/1.1/DTD/svg11.dtd">
<svg version="1.1" id="Layer_1" xmlns="http://www.w3.org/2000/svg" xmlns:xlink="http://www.w3.org/1999/xlink" x="0px" y="0px"
	 width="910px" height="385px" viewBox="0 0 910 385" enable-background="new 0 0 910 385" xml:space="preserve">
<g>
	<defs>
		<rect id="SVGID_1_" x="31.771" y="12" width="846.035" height="363"/>
	</defs>
	<clipPath id="SVGID_2_">
		<use xlink:href="#SVGID_1_"  overflow="visible"/>
	</clipPath>
	<g clip-path="url(#SVGID_2_)">
		<path fill="#F58A1F" d="M402.069,32.931c7.188,0,13.135,2.489,17.849,7.474c4.7,4.978,7.054,11.344,7.054,19.091
			c0,5.258-0.828,10.586-2.49,15.979c-1.661,5.393-3.671,10.582-6.016,15.565c-2.36,4.979-4.709,9.613-7.059,13.904
			c-2.355,4.285-4.221,7.813-5.603,10.586l-16.188-5.398c-5.538-2.215-6.919-6.64-4.15-13.28l7.468-17.016
			c-4.425-1.941-8.091-4.839-10.995-8.721c-2.908-3.871-4.36-8.57-4.36-14.108c0-6.915,2.35-12.656,7.059-17.221
			C389.338,35.216,395.15,32.931,402.069,32.931"/>
		<path fill="#0063A5" d="M358.417,332.133c-0.164-0.28-0.324-0.538-0.469-0.808l-0.03-0.025
			c-19.99-33.827-40.443-57.954-61.312-72.396c-9.632-6.715-20.044-11.758-31.235-15.116c-10.979-3.138-22.289-4.476-33.942-4.03
			c-9.619,0.449-14.328,5.498-14.108,15.111c0.454,9.639,5.487,14.243,15.135,13.789c8.726-0.22,17.111,0.777,25.173,3.008
			c7.847,2.475,15.345,6.156,22.524,11.099c17.685,12.098,35.475,33.36,53.409,63.831l0.234,0.335
			c0.175,0.25,0.35,0.488,0.529,0.732c2.634,3.448,6.844,5.679,11.599,5.679c7.986,0,14.457-6.335,14.457-14.14
			c0-2.3-0.558-4.468-1.556-6.39C358.681,332.592,358.547,332.357,358.417,332.133 M380.263,167.939
			c-0.275-3.313-0.693-6.601-1.222-9.873c-0.34-2.195-0.743-4.366-1.208-6.52c-0.229-1.092-0.463-2.17-0.713-3.248
			c-0.51-2.15-1.033-4.3-1.626-6.436c-0.424-1.577-0.863-3.143-1.327-4.68c-1.307-4.37-2.789-8.65-4.37-12.85
			c-0.209-0.55-0.399-1.093-0.608-1.647c-0.025-0.059-0.045-0.099-0.065-0.165c-2.365-5.631-4.979-11.164-7.678-16.627
			c-0.105-0.21-0.209-0.419-0.314-0.633c-1.396-2.614-2.853-5.208-4.39-7.803c-3.083-5.208-6.371-10.167-9.853-14.916
			c-0.529-0.718-1.057-1.412-1.581-2.11c-3.522-4.535-7.174-8.879-11.016-12.995c-0.464-0.524-0.948-1.033-1.432-1.517
			c-0.698-0.738-1.417-1.477-2.175-2.216c-1.875-1.88-3.821-3.736-5.821-5.527c-0.404-0.403-0.824-0.783-1.268-1.137
			c-3.013-2.748-6.136-5.383-9.383-7.912c-4.535-3.567-9.18-6.86-13.904-9.893c-0.549-0.359-1.098-0.699-1.646-1.038
			c-7.788-4.784-16.053-9.029-24.769-12.721c-0.165-0.085-0.34-0.145-0.528-0.229c-5.423-2.216-10.991-4.181-16.748-5.907
			c-1.038-0.319-2.09-0.614-3.123-0.908c-0.275-0.084-0.55-0.149-0.823-0.234c-1.856-0.509-3.737-0.968-5.613-1.432
			c-3.248-0.784-6.516-1.481-9.788-2.07c-0.698-0.125-1.412-0.254-2.13-0.359c-1.117-0.19-2.24-0.359-3.357-0.504
			c-0.714-0.104-1.452-0.19-2.17-0.299c-2.444-0.314-4.894-0.584-7.364-0.818h-0.209c-1.222-0.13-2.449-0.21-3.672-0.294
			c-1.267-0.084-2.529-0.17-3.816-0.234c-0.634-0.04-1.268-0.06-1.901-0.084c-5.103-0.17-10.147-0.125-15.146,0.104
			c-1.228,0.064-2.47,0.149-3.697,0.234c-3.691,0.294-7.378,0.693-11.075,1.202c-3.373,0.464-6.75,1.013-10.083,1.642
			c-1.327,0.279-2.653,0.548-3.986,0.848c-4.939,1.117-9.872,2.464-14.812,4.006c-1.032,0.339-2.066,0.678-3.098,1.013
			c-0.823,0.273-1.626,0.548-2.429,0.847c-4.071,1.432-8.057,2.994-11.938,4.7c-0.235,0.104-0.464,0.209-0.678,0.298
			c-0.314,0.145-0.608,0.275-0.909,0.42c-0.908,0.403-1.811,0.823-2.719,1.247c-0.908,0.438-1.815,0.883-2.699,1.326
			c-0.888,0.445-1.795,0.889-2.679,1.353c-1.796,0.929-3.567,1.876-5.337,2.863c-1.751,0.993-3.528,2.03-5.274,3.088
			c-5.003,3.013-9.767,6.222-14.347,9.594c-0.464,0.339-0.928,0.698-1.392,1.057c-0.949,0.713-1.876,1.457-2.804,2.216
			c-2.679,2.174-5.318,4.39-7.852,6.665c-0.844,0.758-1.687,1.541-2.511,2.3c-0.822,0.778-1.646,1.561-2.443,2.339
			c-0.365,0.339-0.718,0.699-1.058,1.038c-5.482,5.483-10.67,11.389-15.565,17.72c-4.265,5.507-8.126,11.16-11.608,16.961
			c-0.165,0.274-0.334,0.528-0.484,0.804c-2.914,4.974-5.613,10.146-8.103,15.499c-0.354,0.718-0.673,1.458-0.987,2.176
			c-3.168,7.174-5.867,14.622-8.121,22.364c-1.985,6.79-3.547,13.589-4.685,20.359c-0.025,0.06-0.025,0.104-0.025,0.164
			c-0.165,0.994-0.315,2.006-0.459,2.999c-1.018,7.024-1.606,14.199-1.816,21.497c-0.13,4.26-0.065,8.525,0.149,12.762
			c0.08,1.377,0.165,2.768,0.27,4.135c0.025,0.36,0.044,0.699,0.085,1.039c0.084,0.901,0.169,1.835,0.254,2.764
			c0.02,0.123,0.02,0.234,0.041,0.357c0,0.08,0,0.166,0.025,0.25c0.104,0.992,0.209,2.006,0.333,3.019
			c0,0.105,0.026,0.189,0.041,0.273c0.068,0.511,0.129,1.013,0.194,1.518c0,0.129,0.02,0.253,0.064,0.403
			c0.145,1.072,0.314,2.151,0.479,3.229c0.234,1.516,0.509,3.017,0.783,4.515c0.169,0.992,0.358,1.96,0.569,2.927
			c0.234,1.228,0.489,2.449,0.763,3.651v0.026c0.021,0.038,0.021,0.06,0.021,0.1c0.165,0.719,0.339,1.437,0.504,2.154
			c0.11,0.463,0.214,0.908,0.319,1.367c0.105,0.47,0.209,0.934,0.339,1.397c0.315,1.33,0.654,2.659,1.007,3.966
			c0.719,2.614,1.482,5.188,2.301,7.724c0.403,1.284,0.823,2.553,1.247,3.795c0.445,1.262,0.883,2.51,1.352,3.757
			c0.464,1.243,0.929,2.488,1.408,3.711c0.574,1.479,1.187,2.933,1.82,4.391c0.544,1.281,1.118,2.549,1.706,3.816
			c0.654,1.432,1.353,2.844,2.046,4.261c0.698,1.392,1.417,2.783,2.155,4.175c0.399,0.778,0.823,1.543,1.242,2.3
			c0.529,0.933,1.078,1.877,1.606,2.809c0.02,0.04,0.04,0.061,0.06,0.086v0.019c1.163,1.962,2.345,3.902,3.566,5.804
			c1.158,1.874,2.386,3.73,3.627,5.567c4.221,6.161,8.716,11.961,13.504,17.425c0.569,0.653,1.113,1.286,1.726,1.895
			c0.045,0.051,0.085,0.111,0.129,0.156c0.105,0.099,0.19,0.209,0.274,0.293c0.061,0.065,0.125,0.125,0.17,0.166
			c0.549,0.613,1.138,1.227,1.707,1.84c0.293,0.295,0.568,0.61,0.867,0.904c0.739,0.763,1.472,1.515,2.215,2.254
			c0.754,0.783,1.542,1.562,2.34,2.324c0.718,0.694,1.432,1.393,2.17,2.065c1.731,1.626,3.502,3.228,5.298,4.814
			c0.574,0.484,1.137,0.968,1.711,1.431c0.903,0.76,1.856,1.518,2.784,2.257c7.827,6.165,15.884,11.607,24.195,16.267
			c2.744,1.497,5.507,2.979,8.291,4.386c0.13,0.064,0.275,0.129,0.419,0.213c3.991,1.922,8.062,3.713,12.258,5.386
			c0.09,0.014,0.169,0.059,0.234,0.079c3.228,1.286,6.5,2.509,9.853,3.631c2.065,0.694,4.136,1.348,6.221,1.942
			c0.3,0.078,0.574,0.169,0.869,0.253c4.685,1.302,9.428,2.4,14.238,3.308c0.274,0.065,0.553,0.105,0.843,0.15
			c1.013,0.189,2.01,0.358,3.019,0.504c0.867,0.144,1.73,0.254,2.594,0.379c0.169,0.024,0.319,0.046,0.484,0.064
			c3.821,0.509,7.682,0.993,11.523,1.352c0.354,0.04,0.734,0.084,1.098,0.084c3.816,0.295,7.677,0.466,11.578,0.505h0.105
			c3.881,0.062,7.803-0.019,11.753-0.21c9.678-0.463,19.281-1.814,28.69-4.155c5.018-1.221,10.042-2.488,14.977-4.076
			c4.115-1.306,8.271-2.739,12.133-4.699c7.806-3.985,11.833-14.349,6.684-23.61c-4.744-8.567-14.532-10.672-21.94-7.653
			c-7.508,3.079-15.296,5.269-23.248,6.834c-8.52,1.687-17.092,2.676-25.691,2.784c-4.011,0.065-8.037-0.065-12.073-0.425
			c-0.503-0.019-1.008-0.06-1.517-0.123c-4.215-0.341-8.436-0.91-12.617-1.667c-8.436-1.521-16.663-3.697-24.574-6.645
			c-3.862-1.438-7.638-3.039-11.329-4.874c-0.215-0.105-0.425-0.189-0.634-0.32c-0.673-0.315-1.327-0.653-1.981-0.992
			c-1.202-0.564-2.384-1.196-3.546-1.831c-13.839-7.259-25.907-16.667-36.244-28.103v-0.02c-0.399-0.403-0.758-0.827-1.117-1.247
			l-0.02-0.02c-0.613-0.674-1.223-1.393-1.816-2.09c-0.359-0.399-0.698-0.799-1.033-1.203
			c-9.349-10.735-16.647-22.613-22.025-35.524c-0.339-0.674-0.654-1.353-0.948-2.046c-0.15-0.487-0.319-0.973-0.449-1.416
			c-0.015-0.02-0.015-0.04-0.015-0.04c-0.658-1.666-1.247-3.333-1.821-5.044c-0.06-0.169-0.125-0.334-0.185-0.528
			c-4.918-13.715-7.468-27.763-7.747-42.106c-0.035-0.593-0.08-1.202-0.105-1.814c0.045-0.55,0.07-1.078,0.105-1.603
			c0-4.095,0.214-8.206,0.613-12.346c0.15-1.832,0.36-3.688,0.594-5.523c0.106-0.908,0.235-1.836,0.379-2.743
			c0.125-0.929,0.275-1.836,0.445-2.764c0.293-1.832,0.653-3.652,1.052-5.463c0.19-0.929,0.379-1.832,0.613-2.743
			c0.21-0.908,0.424-1.816,0.674-2.72c0.04-0.15,0.085-0.319,0.125-0.488c0.084-0.379,0.189-0.778,0.294-1.183
			c0.05-0.184,0.11-0.374,0.15-0.588c1.078-4.215,2.365-8.455,3.796-12.716c0.679-1.456,1.292-2.808,1.861-4.057
			c0.464-1.136,0.928-2.278,1.431-3.391c0.405-0.928,0.804-1.841,1.248-2.743c0.418-0.91,0.863-1.817,1.307-2.72
			c2.464-5.068,5.273-9.961,8.417-14.687c0.503-0.778,1.037-1.561,1.561-2.32c0.359-0.548,0.739-1.097,1.158-1.646
			c0.065-0.104,0.155-0.209,0.215-0.319c0.189-0.274,0.378-0.548,0.568-0.798c3.777-5.338,7.892-10.316,12.387-14.96
			c1.222-1.328,2.529-2.615,3.836-3.882c0.803-0.798,1.626-1.581,2.469-2.318c0.569-0.544,1.162-1.074,1.751-1.603
			c0.953-0.842,1.92-1.67,2.913-2.489c3.602-3.083,7.358-5.926,11.284-8.521c0.719-0.528,1.437-0.992,2.15-1.456
			c0,0,0.025-0.045,0.045-0.025c1.013-0.674,2.005-1.327,3.038-1.96c1.078-0.674,2.17-1.327,3.268-1.986
			c0.947-0.564,1.921-1.112,2.913-1.641c6.536-3.653,13.375-6.73,20.464-9.221c0.419-0.149,0.838-0.293,1.282-0.443
			c7.01-2.47,14.223-4.32,21.566-5.547c0.04-0.021,0.085-0.021,0.12-0.021c5.428-0.972,10.871-1.627,16.313-1.9
			c1.432-0.085,2.869-0.149,4.326-0.17h0.02c0.888-0.02,1.791-0.04,2.679-0.04c1.667,0,3.333,0.02,4.999,0.084
			c0.379,0.02,0.763,0.02,1.142,0.04c1.561,0.041,3.118,0.124,4.66,0.254c1.581,0.085,3.167,0.23,4.749,0.424
			c1.347,0.125,2.694,0.29,4.046,0.484c0.888,0.1,1.756,0.229,2.619,0.399c9.193,1.392,18.204,3.737,27.003,7.089
			c0.718,0.254,1.432,0.523,2.15,0.803c0.319,0.126,0.633,0.23,0.928,0.36c0.339,0.125,0.679,0.274,1.013,0.419
			c3.546,1.392,7.023,2.953,10.421,4.684c0.849,0.419,1.691,0.863,2.535,1.307c1.052,0.55,2.085,1.118,3.118,1.706
			c0.823,0.47,1.651,0.929,2.455,1.438c4.929,2.869,9.659,6.096,14.193,9.623c0.699,0.543,1.392,1.073,2.09,1.642
			c0.359,0.274,0.713,0.569,1.072,0.868c1.711,1.392,3.398,2.808,5.024,4.28l0.064,0.065c0.419,0.333,0.824,0.713,1.243,1.117
			l0.065,0.06c5.528,5.049,10.586,10.511,15.146,16.399c0.633,0.778,1.222,1.576,1.811,2.383c0.444,0.565,0.868,1.158,1.292,1.748
			c0.379,0.508,0.739,1.013,1.093,1.541c0.548,0.758,1.057,1.516,1.585,2.299c0.549,0.778,1.053,1.538,1.537,2.339
			c1.397,2.111,2.704,4.261,3.926,6.456c0.633,1.103,1.243,2.195,1.836,3.292c2.973,5.444,5.526,11.017,7.702,16.734v0.019
			c3.372,8.88,5.777,18.075,7.253,27.593c1.287,7.911,1.896,15.78,1.796,23.631c-0.195,16.577-3.507,33.015-9.708,49.299
			c-3.248,8.565,0.848,20.144,12.427,23.018c8.541,2.13,17.321-2.618,20.358-10.976c2.131-5.796,3.927-11.703,5.678-17.61
			c2.529-8.501,4.091-17.216,5.019-26.036c0.698-6.456,1.053-12.82,1.078-19.132v-0.757
			C381.21,180.111,380.767,174.015,380.263,167.939"/>
		<path fill="#0063A5" d="M604.332,161.16v-0.015c-0.016-0.205-0.025-0.41-0.045-0.614c-0.149-1.802-0.379-3.588-0.669-5.363
			c-0.18-1.192-0.398-2.369-0.647-3.543c-0.125-0.593-0.255-1.176-0.396-1.76c-0.269-1.172-0.559-2.335-0.877-3.492
			c-0.229-0.857-0.47-1.712-0.724-2.545c-0.709-2.369-1.512-4.698-2.37-6.974c-0.114-0.298-0.22-0.598-0.335-0.893
			c-0.009-0.034-0.02-0.059-0.033-0.094c-1.283-3.058-2.699-6.063-4.167-9.025c-0.055-0.115-0.119-0.229-0.174-0.345
			c-0.759-1.417-1.547-2.828-2.38-4.235c-1.672-2.828-3.462-5.522-5.353-8.102c-0.285-0.389-0.569-0.763-0.858-1.142
			c-1.911-2.464-3.892-4.819-5.977-7.054c-0.249-0.289-0.515-0.563-0.777-0.823c-0.38-0.404-0.77-0.808-1.178-1.207
			c-0.155-0.15-0.29-0.284-0.439-0.419c-0.114-0.12-0.229-0.235-0.354-0.339c-0.769-0.773-1.556-1.516-2.374-2.24
			c-0.215-0.22-0.439-0.429-0.684-0.618c-1.636-1.492-3.332-2.924-5.099-4.301c-2.46-1.931-4.984-3.721-7.549-5.368
			c-0.299-0.194-0.593-0.374-0.892-0.563c-4.227-2.599-8.716-4.898-13.445-6.905c-0.095-0.045-0.189-0.08-0.289-0.124
			c-2.943-1.203-5.967-2.27-9.094-3.208c-0.56-0.169-1.134-0.334-1.696-0.489c-0.146-0.05-0.295-0.084-0.449-0.129
			c-1.003-0.28-2.021-0.53-3.044-0.779c-1.76-0.424-3.537-0.804-5.313-1.122c-0.378-0.07-0.768-0.141-1.156-0.195
			c-0.608-0.104-1.213-0.195-1.821-0.274c-0.39-0.06-0.788-0.105-1.177-0.16c-1.332-0.174-2.659-0.324-4.001-0.448h-0.114
			c-0.664-0.07-1.328-0.115-1.991-0.16c-0.688-0.05-1.377-0.09-2.075-0.125c-0.344-0.025-0.688-0.035-1.028-0.045
			c-2.773-0.095-5.508-0.069-8.221,0.056c-0.668,0.034-1.343,0.079-2.006,0.124c-2.01,0.16-4.011,0.379-6.017,0.654
			c-1.836,0.25-3.667,0.549-5.478,0.892c-0.719,0.15-1.441,0.295-2.165,0.459c-2.68,0.609-5.357,1.342-8.037,2.175
			c-0.563,0.185-1.122,0.37-1.681,0.549c-0.45,0.149-0.889,0.299-1.317,0.458c-2.21,0.779-4.375,1.627-6.485,2.555
			c-0.125,0.06-0.254,0.114-0.369,0.159c-0.17,0.081-0.329,0.15-0.489,0.229c-0.494,0.22-0.986,0.445-1.481,0.679
			c-0.489,0.239-0.982,0.478-1.462,0.723c-0.483,0.24-0.978,0.479-1.456,0.728c-0.973,0.505-1.936,1.024-2.898,1.558
			c-0.948,0.543-1.911,1.102-2.863,1.676c-2.714,1.637-5.304,3.378-7.788,5.213c-0.255,0.181-0.504,0.375-0.759,0.569
			c-0.514,0.395-1.017,0.794-1.521,1.202c-1.452,1.183-2.882,2.385-4.26,3.623c-0.459,0.409-0.918,0.833-1.362,1.247
			c-0.449,0.423-0.893,0.849-1.327,1.272c-0.139,0.125-0.27,0.25-0.394,0.379c-0.056,0.055-0.121,0.1-0.186,0.179
			c-0.284,0.291-0.583,0.589-0.846,0.883c-0.011,0-0.021,0.015-0.021,0.025c-2.669,2.714-5.188,5.623-7.578,8.716
			c-2.314,2.988-4.415,6.062-6.306,9.208c-0.09,0.15-0.184,0.285-0.259,0.436c-1.583,2.702-3.049,5.508-4.4,8.42
			c-0.195,0.389-0.364,0.788-0.539,1.177c-1.717,3.896-3.183,7.938-4.406,12.143c-1.077,3.687-1.931,7.373-2.549,11.05
			c-0.01,0.035-0.01,0.059-0.01,0.096c-0.09,0.538-0.169,1.086-0.254,1.621c-0.548,3.815-0.868,7.712-0.983,11.673
			c-0.07,2.314-0.035,4.63,0.08,6.93c0.044,0.747,0.09,1.501,0.149,2.245c0.01,0.199,0.026,0.378,0.044,0.564
			c0.045,0.493,0.096,0.992,0.141,1.5c0.009,0.07,0.009,0.126,0.02,0.195c0,0.045,0,0.089,0.015,0.135
			c0.055,0.538,0.115,1.087,0.179,1.641c0,0.054,0.015,0.099,0.026,0.143c0.034,0.275,0.064,0.555,0.104,0.83
			c0,0.069,0.01,0.14,0.035,0.22c0.08,0.579,0.17,1.167,0.264,1.75c0.125,0.824,0.27,1.637,0.424,2.45
			c0.09,0.539,0.195,1.063,0.305,1.59c0.129,0.666,0.265,1.329,0.414,1.981v0.011c0.01,0.024,0.01,0.034,0.01,0.059
			c0.095,0.39,0.185,0.779,0.28,1.167c0.054,0.255,0.11,0.494,0.169,0.743c0.061,0.256,0.11,0.504,0.186,0.759
			c0.168,0.724,0.348,1.44,0.543,2.155c0.394,1.417,0.808,2.814,1.251,4.19c0.215,0.698,0.449,1.388,0.679,2.059
			c0.24,0.69,0.479,1.364,0.729,2.042c0.25,0.673,0.509,1.352,0.769,2.017c0.309,0.798,0.638,1.591,0.988,2.378
			c0.294,0.698,0.608,1.388,0.928,2.076c0.354,0.784,0.733,1.547,1.107,2.315c0.379,0.751,0.769,1.512,1.168,2.264
			c0.219,0.425,0.448,0.838,0.677,1.253c0.285,0.499,0.585,1.018,0.869,1.521c0.016,0.021,0.025,0.035,0.036,0.045v0.015
			c0.628,1.063,1.277,2.115,1.935,3.147c0.628,1.019,1.297,2.026,1.971,3.024c0.309,0.444,0.619,0.893,0.942,1.342
			c2.016,2.849,4.142,5.554,6.393,8.117c0.309,0.355,0.603,0.703,0.937,1.032c0.025,0.02,0.044,0.061,0.07,0.08
			c0.056,0.054,0.104,0.114,0.149,0.16l0.09,0.09c0.299,0.333,0.618,0.667,0.927,1.002c0.161,0.154,0.31,0.329,0.47,0.487
			c0.205,0.211,0.403,0.415,0.608,0.62c0.01,0.024,0.021,0.035,0.031,0.045c0.195,0.195,0.384,0.379,0.563,0.559
			c0.23,0.244,0.46,0.474,0.699,0.693l0.035,0.03c0.173,0.195,0.354,0.369,0.539,0.538c0.389,0.38,0.777,0.759,1.178,1.124
			c0.095,0.084,0.174,0.162,0.265,0.238c0.857,0.804,1.731,1.597,2.614,2.375c0.309,0.264,0.617,0.528,0.928,0.778
			c0.493,0.414,1.006,0.828,1.511,1.227c4.245,3.343,8.626,6.297,13.141,8.83c1.486,0.813,2.988,1.612,4.5,2.38
			c0.069,0.036,0.149,0.07,0.225,0.115c2.165,1.043,4.38,2.02,6.654,2.924c0.045,0.01,0.095,0.034,0.125,0.039
			c1.756,0.703,3.532,1.367,5.353,1.971c1.122,0.384,2.246,0.739,3.378,1.059c0.159,0.049,0.309,0.09,0.469,0.138
			c2.544,0.709,5.118,1.304,7.732,1.797c0.15,0.034,0.3,0.06,0.458,0.085c0.551,0.101,1.089,0.189,1.637,0.27
			c0.47,0.079,0.938,0.139,1.412,0.21c0.09,0.01,0.17,0.02,0.265,0.034c2.07,0.275,4.165,0.539,6.251,0.728
			c0.194,0.025,0.399,0.051,0.594,0.051c2.075,0.16,4.171,0.25,6.291,0.273h0.055c2.11,0.03,4.241-0.009,6.381-0.113
			c5.258-0.254,10.471-0.988,15.579-2.255c2.725-0.669,5.448-1.353,8.132-2.21c2.235-0.709,4.49-1.493,6.585-2.561
			c4.236-2.163,6.427-7.787,3.632-12.815c-2.579-4.649-7.893-5.792-11.913-4.155c-4.075,1.671-8.301,2.859-12.626,3.706
			c-4.625,0.918-9.273,1.457-13.948,1.518c-2.175,0.034-4.36-0.036-6.551-0.229c-0.274-0.017-0.549-0.036-0.823-0.07
			c-2.295-0.186-4.585-0.493-6.85-0.902c-4.584-0.829-9.049-2.006-13.344-3.612c-2.096-0.778-4.146-1.646-6.152-2.645
			c-0.114-0.056-0.224-0.104-0.344-0.17c-0.364-0.174-0.724-0.357-1.078-0.537c-0.653-0.312-1.292-0.653-1.92-0.998
			c-6.15-3.229-11.658-7.241-16.538-11.995c-0.149-0.139-0.29-0.283-0.429-0.434c-0.021-0.014-0.029-0.034-0.029-0.034
			c-0.395-0.368-0.77-0.752-1.138-1.137c-0.011-0.03-0.036-0.046-0.045-0.046c-0.505-0.522-1.003-1.063-1.502-1.616v-0.006
			c-0.214-0.218-0.414-0.447-0.608-0.677l-0.01-0.016c-0.33-0.365-0.658-0.753-0.983-1.127c-0.194-0.219-0.379-0.438-0.563-0.658
			c-2.46-2.839-4.685-5.833-6.63-8.944c-2.046-3.298-3.827-6.745-5.323-10.343c-0.185-0.37-0.354-0.733-0.519-1.107
			c-0.08-0.265-0.17-0.529-0.245-0.769c-0.005-0.014-0.005-0.025-0.005-0.025c-0.358-0.902-0.679-1.811-0.988-2.733
			c-0.034-0.094-0.064-0.189-0.1-0.289c-2.669-7.448-4.056-15.076-4.205-22.863c-0.02-0.32-0.044-0.649-0.06-0.984
			c0.025-0.299,0.04-0.589,0.06-0.873c0-2.221,0.115-4.455,0.329-6.7c0.085-0.998,0.196-2.001,0.324-2.998
			c0.055-0.495,0.125-0.998,0.205-1.487c0.07-0.504,0.15-1.004,0.24-1.506c0.159-0.993,0.354-1.98,0.573-2.964
			c0.1-0.503,0.204-0.997,0.334-1.492c0.114-0.488,0.229-0.982,0.365-1.476c0.02-0.081,0.044-0.17,0.068-0.26
			c0.046-0.208,0.105-0.424,0.16-0.643c0.025-0.105,0.055-0.21,0.08-0.32c0.583-2.295,1.282-4.594,2.065-6.909
			c0.364-0.788,0.697-1.522,1.003-2.196c0.253-0.618,0.509-1.241,0.778-1.846c0.219-0.503,0.438-0.998,0.678-1.491
			c0.229-0.489,0.474-0.982,0.709-1.476c1.342-2.75,2.864-5.408,4.57-7.973c0.279-0.423,0.563-0.848,0.848-1.262
			c0.194-0.293,0.403-0.594,0.629-0.893c0.04-0.055,0.085-0.11,0.115-0.17c0.105-0.149,0.209-0.3,0.313-0.434
			c2.045-2.898,4.28-5.602,6.719-8.122c0.32-0.344,0.645-0.688,0.979-1.017c0.02-0.016,0.035-0.025,0.046-0.051
			c0.153-0.135,0.308-0.284,0.454-0.444c0.208-0.209,0.398-0.398,0.607-0.598c0.435-0.435,0.883-0.859,1.342-1.257
			c0.305-0.299,0.629-0.583,0.949-0.873c0.513-0.454,1.042-0.902,1.582-1.352c1.954-1.67,3.995-3.218,6.13-4.624
			c0.389-0.285,0.777-0.539,1.168-0.794c0,0,0.01-0.02,0.024-0.011c0.544-0.363,1.083-0.722,1.646-1.062
			c0.584-0.37,1.178-0.723,1.775-1.078c0.515-0.309,1.043-0.608,1.577-0.893c3.552-1.98,7.269-3.656,11.114-5.008
			c0.225-0.081,0.453-0.16,0.698-0.239c3.801-1.342,7.718-2.345,11.704-3.014c0.024-0.01,0.045-0.01,0.07-0.01
			c2.942-0.529,5.896-0.883,8.85-1.033c0.783-0.04,1.562-0.075,2.35-0.09h0.015c0.479-0.009,0.974-0.024,1.452-0.024
			c0.908,0,1.81,0.015,2.718,0.05c0.206,0.01,0.409,0.01,0.62,0.025c0.843,0.016,1.69,0.065,2.524,0.134
			c0.862,0.045,1.721,0.125,2.578,0.229c0.733,0.065,1.468,0.16,2.2,0.264c0.484,0.055,0.948,0.126,1.422,0.215
			c4.994,0.758,9.883,2.03,14.656,3.846c0.395,0.139,0.783,0.29,1.173,0.44c0.169,0.068,0.34,0.124,0.499,0.193
			c0.185,0.07,0.369,0.15,0.554,0.229c1.926,0.753,3.811,1.602,5.657,2.544c0.459,0.225,0.918,0.47,1.377,0.709
			c0.569,0.298,1.133,0.608,1.696,0.928c0.443,0.25,0.893,0.504,1.326,0.779c2.68,1.556,5.244,3.312,7.708,5.223
			c0.38,0.294,0.754,0.584,1.133,0.893c0.195,0.15,0.389,0.309,0.584,0.469c0.933,0.758,1.846,1.521,2.729,2.326l0.033,0.034
			c0.229,0.185,0.449,0.39,0.675,0.608l0.034,0.03c0.514,0.474,1.018,0.943,1.513,1.432c0,0.015,0.014,0.015,0.014,0.015
			c0.329,0.393,0.693,0.757,1.099,1.077l0.033,0.036c1.98,1.999,3.837,4.12,5.568,6.345c0.34,0.417,0.663,0.858,0.982,1.292
			c0.24,0.308,0.47,0.628,0.698,0.947c0.204,0.279,0.4,0.554,0.594,0.838c0.299,0.415,0.58,0.828,0.858,1.247
			c0.299,0.43,0.578,0.838,0.838,1.272c0.759,1.147,1.467,2.314,2.13,3.507c0.345,0.593,0.674,1.188,0.998,1.786
			c1.611,2.953,3.003,5.975,4.181,9.079v0.014c1.836,4.819,3.138,9.818,3.94,14.982c0.391,2.384,0.659,4.764,0.824,7.133
			c0.129,1.901,0.174,3.808,0.149,5.699c-0.015,1.237-0.06,2.473-0.149,3.696v54.976c-0.021,0.275-0.035,0.538-0.035,0.813
			c0,0.279,0.015,0.544,0.035,0.813c0.01,13.336,0,27.415,0,41.237v0.015c0.159,1.736,0.264,3.477,0.284,5.229
			c0.035,0.986,0.035,1.984,0.016,2.968c0,0.618-0.016,1.227-0.061,1.845c-0.011,0.426-0.034,0.85-0.055,1.283
			c-0.035,0.688-0.095,1.371-0.16,2.07c0,0.069-0.015,0.139-0.024,0.209c-0.205,2.5-0.539,4.958-1.043,7.399
			c-0.069,0.482-0.159,0.926-0.265,1.386c0,0,0.015,0.021-0.01,0.021c-0.124,0.653-0.255,1.286-0.413,1.926
			c-0.146,0.662-0.32,1.341-0.49,2.015c-0.149,0.583-0.31,1.157-0.483,1.74c-1.107,3.922-2.555,7.719-4.315,11.396
			c-0.104,0.219-0.209,0.438-0.324,0.668c-1.741,3.642-3.802,7.125-6.146,10.411c-0.014,0.024-0.024,0.036-0.05,0.056
			c-1.706,2.454-3.537,4.79-5.532,6.988c-0.514,0.583-1.042,1.158-1.586,1.727h-0.016c-0.334,0.359-0.663,0.713-1.008,1.059
			l-0.104,0.099c-0.046,0.046-0.09,0.081-0.136,0.131c-0.22,0.215-0.424,0.433-0.644,0.637c-0.01,0-0.01,0.012-0.01,0.012
			c-0.344,0.334-0.698,0.679-1.052,0.997c-0.16,0.141-0.311,0.289-0.46,0.425c-0.618,0.589-1.248,1.157-1.891,1.696
			c-0.644,0.573-1.308,1.121-1.98,1.661c-0.564,0.469-1.147,0.913-1.741,1.362c-0.379,0.308-0.758,0.583-1.157,0.857
			c-4.065,2.987-8.431,5.557-13.091,7.643c-0.368,0.179-0.758,0.354-1.132,0.514c-0.175,0.08-0.335,0.16-0.495,0.22
			c-0.174,0.084-0.364,0.16-0.548,0.229c-1.892,0.823-3.831,1.567-5.802,2.209c-0.489,0.159-0.982,0.311-1.472,0.471
			c-0.619,0.188-1.228,0.363-1.86,0.538c-0.489,0.135-0.984,0.27-1.487,0.389c-2.999,0.788-6.046,1.362-9.14,1.751
			c-0.483,0.061-0.947,0.124-1.44,0.175c-0.245,0.03-0.495,0.054-0.75,0.075c-1.191,0.129-2.364,0.234-3.557,0.29h-0.06
			c-0.289,0.034-0.588,0.043-0.903,0.043h-0.049c-4.056,0.196-8.092,0.037-12.107-0.468c-0.544-0.055-1.073-0.134-1.612-0.229
			c-0.389-0.045-0.783-0.105-1.168-0.17c-0.334-0.046-0.667-0.104-1.007-0.17c-0.504-0.084-0.987-0.18-1.492-0.279
			c-0.514-0.09-0.992-0.186-1.486-0.31c-1.356-0.273-2.684-0.593-3.985-0.973c-0.664-0.175-1.332-0.368-1.971-0.553
			c-3.233-0.948-6.346-2.104-9.385-3.468l-0.01-0.01c-4.699-2.106-9.149-4.72-13.38-7.802c-3.526-2.555-6.779-5.338-9.758-8.382
			c-6.285-6.44-11.325-14.023-15.196-22.658c-2.04-4.536-8.066-7.41-13.609-4.066c-4.101,2.464-5.648,7.652-3.606,12.026
			c1.407,3.051,2.988,6.002,4.59,8.946c2.289,4.227,5.027,8.176,8.065,11.913c2.211,2.749,4.51,5.339,6.93,7.763l0.293,0.285
			c2.385,2.294,4.895,4.468,7.43,6.608c1.372,1.158,2.803,2.271,4.255,3.322c0.973,0.715,1.96,1.388,2.968,2.041
			c0.505,0.33,1.008,0.654,1.526,0.974c1.018,0.629,2.046,1.252,3.089,1.845c0.769,0.444,1.536,0.873,2.305,1.282
			c2.186,1.184,4.396,2.255,6.604,3.254c0.3,0.14,0.584,0.273,0.874,0.403c0.034,0.02,0.055,0.02,0.089,0.044
			c3.074,1.248,6.201,2.371,9.324,3.423c0.124,0.045,0.255,0.089,0.369,0.125c1.546,0.469,3.093,0.902,4.685,1.316
			c3.183,0.814,6.341,1.458,9.508,1.941c0.479,0.074,0.948,0.135,1.417,0.205c3.094,0.388,6.162,0.651,9.21,0.758
			c0.39,0.03,0.763,0.03,1.132,0.03c0.564,0.025,1.112,0.025,1.701,0.025c1.428,0,2.894-0.036,4.351-0.114
			c0.31,0,0.619-0.027,0.928-0.048c2.21-0.113,4.42-0.303,6.63-0.572c3.113-0.364,6.161-0.894,9.14-1.536l1.033-0.24
			c4.818-1.146,9.633-2.688,14.387-4.623c0.1-0.025,0.194-0.07,0.295-0.105c2.933-1.236,5.821-2.624,8.695-4.171
			c0.514-0.28,1.042-0.564,1.546-0.849c0.135-0.07,0.274-0.16,0.409-0.229c0.908-0.513,1.801-1.066,2.704-1.601
			c1.546-0.954,3.073-1.936,4.549-2.968c0.32-0.22,0.639-0.449,0.958-0.676c0.494-0.354,0.998-0.722,1.481-1.101
			c0.32-0.229,0.629-0.479,0.948-0.719c1.059-0.813,2.11-1.652,3.138-2.516l0.081-0.078c0.518-0.421,1.022-0.858,1.521-1.292
			c0.52-0.459,1.042-0.903,1.561-1.373c0.266-0.229,0.505-0.459,0.754-0.703c0.504-0.463,1.008-0.948,1.506-1.426l0.075-0.081
			c0.274-0.264,0.554-0.529,0.813-0.793c0.04-0.034,0.069-0.069,0.104-0.115c1.132-1.122,2.226-2.264,3.288-3.432
			c0.434-0.494,0.883-1.012,1.332-1.516c1.291-1.521,2.563-3.104,3.776-4.704c0.024-0.026,0.034-0.052,0.055-0.07
			c1.103-1.458,2.165-2.934,3.188-4.431c0.414-0.618,0.809-1.237,1.213-1.856c1.467-2.329,2.845-4.743,4.146-7.232
			c0.265-0.525,0.528-1.053,0.803-1.577c0.204-0.424,0.409-0.833,0.608-1.262c1.004-2.105,1.937-4.236,2.77-6.375
			c0.045-0.14,0.104-0.266,0.15-0.38c0.068-0.186,0.124-0.344,0.184-0.515c0.194-0.493,0.374-1.012,0.574-1.517
			c0.169-0.522,0.349-1.042,0.523-1.556c0.169-0.504,0.345-1.019,0.503-1.546c0.33-1.038,0.648-2.086,0.954-3.153
			c0.288-1.053,0.568-2.125,0.843-3.203c0.758-3.072,1.352-6.14,1.825-9.185c0.046-0.309,0.08-0.629,0.125-0.938
			c0.09-0.643,0.16-1.286,0.229-1.939c0.125-1.199,0.239-2.406,0.319-3.593v-55.969v-63.576
			C604.66,165.42,604.517,163.291,604.332,161.16"/>
		<path fill="#0063A5" d="M825.117,156.467c-0.519-3.347-1.188-6.595-2.017-9.788c-0.063-0.303-0.144-0.579-0.233-0.873
			c-0.918-3.143-1.99-6.226-3.088-9.284c-0.604-1.697-1.282-3.352-2.03-4.989c-0.479-1.103-0.992-2.185-1.536-3.243
			c-0.275-0.533-0.544-1.077-0.825-1.591c-0.572-1.053-1.141-2.11-1.755-3.148c-0.444-0.757-0.888-1.516-1.347-2.254
			c-1.297-2.097-2.658-4.13-4.085-6.101c-0.186-0.265-0.355-0.524-0.55-0.779c-0.024-0.03-0.04-0.05-0.065-0.074
			c-0.548-0.713-1.101-1.418-1.676-2.105c-0.922-1.167-1.876-2.31-2.849-3.438c-1.472-1.667-2.993-3.283-4.524-4.894
			c-0.064-0.08-0.125-0.135-0.194-0.19c-0.235-0.254-0.489-0.509-0.738-0.738c-0.06-0.065-0.131-0.136-0.199-0.201
			c-2.275-2.225-4.615-4.285-7.034-6.22c-0.38-0.299-0.75-0.594-1.118-0.883c-0.613-0.474-1.242-0.932-1.865-1.387
			c-0.744-0.544-1.502-1.073-2.251-1.586c-0.657-0.438-1.307-0.883-1.971-1.308c-0.349-0.229-0.692-0.448-1.027-0.663l-0.045-0.015
			c-0.054-0.05-0.109-0.085-0.169-0.12c-0.294-0.179-0.568-0.354-0.854-0.528c-0.22-0.14-0.454-0.29-0.684-0.42
			c-0.22-0.144-0.449-0.273-0.683-0.408l-0.435-0.254c-0.453-0.26-0.908-0.524-1.371-0.773c-2.655-1.432-5.363-2.744-8.093-4.032
			c-0.029-0.009-0.064-0.02-0.1-0.039c-0.364-0.16-0.729-0.319-1.088-0.474c-2.878-1.227-5.762-2.299-8.665-3.218
			c-0.329-0.114-0.663-0.214-1.003-0.319c-2.868-0.849-5.801-1.587-8.805-2.185c-0.095-0.015-0.189-0.03-0.301-0.05
			c-1.74-0.349-3.501-0.644-5.281-0.887c-2.974-0.365-5.947-0.604-8.925-0.794c-0.43-0.025-0.859-0.034-1.298-0.049
			c-0.493-0.01-0.992-0.021-1.486-0.03c-0.489-0.005-0.987,0-1.472-0.005c-0.255,0-0.494,0.005-0.743,0.005
			c-0.016,0.005-0.041,0.005-0.05,0c-0.07,0-0.125,0.005-0.169,0.005c-0.065,0.004-0.115,0.004-0.17,0.01
			c-0.699,0.005-1.397,0.024-2.081,0.039c-0.234-0.004-0.465,0.005-0.693,0.02c-0.56,0.021-1.088,0.056-1.632,0.085
			c-0.763,0.034-1.516,0.09-2.269,0.154c-0.385,0.03-0.773,0.064-1.153,0.11c-0.015,0.005-0.044,0.005-0.061,0.01
			c-0.598,0.05-1.177,0.125-1.775,0.195c-0.378,0.044-0.778,0.104-1.178,0.149c-1.201,0.166-2.414,0.35-3.631,0.559
			c-0.104,0-0.215,0.03-0.325,0.045l-0.114,0.025c-0.035,0.011-0.055,0.011-0.084,0.021c-0.425,0.069-0.854,0.154-1.283,0.234
			c-0.204,0.03-0.398,0.07-0.588,0.105c-0.559,0.115-1.123,0.23-1.682,0.339c-0.114,0.025-0.229,0.05-0.354,0.075
			c-0.041,0.015-0.085,0.015-0.131,0.025c-0.294,0.075-0.583,0.14-0.867,0.2c-0.942,0.225-1.881,0.454-2.794,0.688
			c-0.03,0-0.05,0.016-0.064,0.021l-0.878,0.234c-0.016,0.004-0.04,0.004-0.065,0.015c-0.02,0.015-0.04,0.009-0.07,0.02
			c-0.379,0.11-0.759,0.215-1.127,0.33c-0.663,0.185-1.317,0.385-1.966,0.604c-0.299,0.081-0.595,0.174-0.877,0.285
			c-1.049,0.329-2.101,0.688-3.134,1.063c-0.534,0.184-1.053,0.384-1.567,0.589c-0.264,0.099-0.537,0.199-0.817,0.318
			c-0.543,0.215-1.092,0.435-1.631,0.664c-0.149,0.045-0.289,0.111-0.434,0.175c-0.069,0.035-0.15,0.055-0.226,0.095
			c-0.768,0.324-1.541,0.664-2.31,1.007c-0.704,0.31-1.406,0.629-2.085,0.973c-0.145,0.064-0.289,0.125-0.419,0.194
			c-0.43,0.215-0.863,0.425-1.298,0.649c-0.229,0.116-0.438,0.23-0.663,0.354c-0.608,0.319-1.217,0.638-1.816,0.968
			c-0.598,0.339-1.197,0.678-1.806,1.027c-0.594,0.345-1.191,0.693-1.785,1.063c-0.59,0.359-1.183,0.728-1.767,1.103
			c-0.503,0.313-0.993,0.637-1.481,0.962c-0.398,0.259-0.788,0.513-1.162,0.778c-0.265,0.189-0.529,0.37-0.794,0.559
			c-0.508,0.354-1.007,0.713-1.506,1.071c-0.404,0.29-0.818,0.595-1.218,0.904c-0.109,0.08-0.214,0.165-0.319,0.233
			c-0.124,0.1-0.249,0.2-0.384,0.294c-0.454,0.354-0.913,0.714-1.356,1.078c-0.101,0.085-0.22,0.165-0.31,0.24
			c-0.021,0.015-0.051,0.04-0.074,0.055c-0.115,0.104-0.229,0.195-0.34,0.299c-0.27,0.214-0.535,0.434-0.809,0.653l-0.448,0.374
			c-0.405,0.359-0.818,0.714-1.228,1.078c-0.389,0.348-0.809,0.712-1.203,1.078c-0.468,0.429-0.933,0.862-1.401,1.287
			c-0.324,0.314-0.659,0.639-0.988,0.962c-0.772,0.764-1.562,1.551-2.319,2.351c-1.098,1.137-2.155,2.29-3.188,3.457
			c-0.782,0.908-1.546,1.821-2.288,2.735c-0.102,0.104-0.19,0.213-0.266,0.324c-0.085,0.098-0.16,0.209-0.249,0.319
			c-0.245,0.309-0.483,0.628-0.729,0.938c-0.808,1.062-1.597,2.134-2.374,3.227l-0.061,0.099c-0.188,0.27-0.38,0.543-0.574,0.813
			c-0.234,0.339-0.454,0.674-0.673,1.008c-0.035,0.059-0.09,0.119-0.115,0.184c-0.124,0.179-0.255,0.37-0.379,0.549
			c-0.114,0.185-0.239,0.374-0.364,0.563c-0.06,0.085-0.115,0.161-0.164,0.25c-0.205,0.33-0.424,0.664-0.629,0.992
			c-0.324,0.515-0.644,1.043-0.952,1.563l-0.404,0.688c-0.271,0.479-0.539,0.943-0.803,1.422c-1.771,3.207-3.398,6.55-4.85,10.021
			c-1.441,3.414-2.648,6.86-3.642,10.317l-0.056,0.17c-0.04,0.176-0.095,0.325-0.134,0.489c-0.021,0.079-0.046,0.145-0.07,0.224
			c-0.125,0.479-0.245,0.963-0.374,1.457c-0.085,0.329-0.175,0.665-0.255,1.003c-0.154,0.618-0.295,1.248-0.438,1.89
			c-0.086,0.345-0.159,0.684-0.229,1.039c-0.069,0.344-0.146,0.698-0.225,1.047c0,0.074-0.025,0.155-0.045,0.233
			c-0.14,0.774-0.295,1.558-0.434,2.351c-0.091,0.423-0.145,0.853-0.21,1.277c-0.08,0.519-0.154,1.042-0.229,1.567
			c-0.509,3.686-0.803,7.433-0.883,11.249c-0.011,0.768-0.025,1.541-0.025,2.305v0.543c0,0.774,0.021,1.543,0.045,2.305
			c0.055,1.951,0.175,3.892,0.354,5.803c0.015,0.114,0.015,0.223,0.021,0.344c0.009,0.03,0.009,0.06,0.015,0.09
			c0.015,0.109,0.024,0.208,0.039,0.323c0.025,0.211,0.041,0.43,0.07,0.655c0.025,0.229,0.05,0.438,0.075,0.654
			c0.104,0.957,0.239,1.904,0.385,2.868c0.054,0.419,0.118,0.818,0.193,1.237c0.06,0.416,0.131,0.823,0.21,1.243
			c0.294,1.696,0.644,3.402,1.048,5.123c0.125,0.559,0.26,1.112,0.403,1.671c0.04,0.154,0.08,0.31,0.115,0.465
			c-0.006,0.005,0,0.021,0.011,0.044l0.074,0.265c0.124,0.47,0.254,0.938,0.398,1.388l0.006,0.015
			c1.007,3.591,2.234,7.148,3.686,10.686c0.64,1.571,1.322,3.108,2.041,4.62c0.14,0.289,0.279,0.569,0.419,0.847
			c0.294,0.609,0.589,1.212,0.908,1.807c0.015,0.021,0.02,0.036,0.035,0.059c0.179,0.351,0.374,0.704,0.563,1.05
			c0.119,0.229,0.229,0.448,0.349,0.679c0.12,0.224,0.239,0.453,0.374,0.679c0.351,0.647,0.714,1.291,1.084,1.93
			c0.373,0.634,0.752,1.262,1.127,1.886c0.384,0.617,0.768,1.222,1.156,1.83c0.39,0.619,0.789,1.217,1.188,1.808
			c0.289,0.427,0.583,0.857,0.883,1.271c0.125,0.18,0.245,0.354,0.379,0.537c0.119,0.176,0.239,0.351,0.374,0.52
			c2.504,3.422,5.264,6.701,8.281,9.853c0.664,0.699,1.332,1.378,1.995,2.036c0.354,0.333,0.694,0.679,1.048,1.004
			c0.27,0.258,0.55,0.513,0.824,0.763c0.024,0.024,0.054,0.044,0.079,0.068c0.409,0.385,0.822,0.769,1.247,1.147
			c0.015,0.006,0.02,0.018,0.035,0.03c0.439,0.384,0.878,0.772,1.312,1.153c2.26,1.936,4.57,3.746,6.939,5.447
			c0.074,0.056,0.149,0.109,0.234,0.171c0.484,0.348,0.983,0.687,1.478,1.021c0.493,0.354,1.012,0.693,1.526,1.032l0.069,0.036
			c0.135,0.096,0.284,0.18,0.419,0.254c0.03,0.021,0.065,0.056,0.095,0.075c0.07,0.035,0.125,0.08,0.18,0.115l0.109,0.064
			c0.375,0.241,0.769,0.479,1.157,0.713c0.196,0.116,0.37,0.245,0.569,0.359c0.499,0.284,0.992,0.584,1.477,0.869
			c0.509,0.304,1.023,0.604,1.547,0.876c0.474,0.275,0.948,0.535,1.427,0.78c1.132,0.607,2.29,1.19,3.446,1.766
			c0.364,0.189,0.729,0.36,1.099,0.519c0.573,0.264,1.183,0.539,1.766,0.798c2.474,1.058,4.949,2.011,7.438,2.874
			c1.547,0.519,3.094,1.012,4.63,1.447c0.544,0.165,1.083,0.319,1.622,0.459c0.273,0.079,0.549,0.155,0.808,0.219
			c0.375,0.095,0.744,0.185,1.098,0.274c0.604,0.14,1.193,0.278,1.807,0.419c0.604,0.14,1.217,0.28,1.835,0.399
			c0.205,0.06,0.429,0.105,0.639,0.148c0.071,0.016,0.155,0.027,0.245,0.052c0.06,0.009,0.109,0.024,0.174,0.029
			c0.075,0.021,0.164,0.03,0.239,0.05c2.226,0.399,4.466,0.743,6.75,1.013c0.05,0,0.1,0.01,0.135,0.01
			c1.701,0.204,3.423,0.379,5.164,0.489c0.688,0.045,1.391,0.08,2.09,0.099c0.475,0.025,0.947,0.03,1.417,0.041
			c0.579,0.006,1.172,0.006,1.746,0.01c0.023,0,0.045-0.004,0.06-0.01l0.01,0.006c1.232-0.012,2.46-0.042,3.682-0.101
			c1.188-0.035,2.4-0.104,3.593-0.194c1.57-0.12,3.138-0.27,4.688-0.479c1.621-0.22,3.238-0.438,4.845-0.713
			c0.289-0.04,0.563-0.09,0.852-0.155c0.062-0.015,0.125-0.021,0.196-0.04c0.856-0.154,1.72-0.328,2.584-0.52
			c1.107-0.237,2.224-0.503,3.337-0.797l0.064-0.016c0.065-0.015,0.131-0.03,0.189-0.05c0.165-0.035,0.34-0.08,0.5-0.136
			l0.893-0.233c0.279-0.09,0.578-0.164,0.872-0.244c0.271-0.081,0.555-0.154,0.824-0.239c0.22-0.065,0.454-0.145,0.688-0.209
			c0.046-0.011,0.086-0.03,0.131-0.041c0.129-0.044,0.27-0.084,0.404-0.124c0.429-0.135,0.857-0.265,1.307-0.404
			c0.608-0.199,1.231-0.396,1.846-0.607c0.384-0.136,0.763-0.275,1.138-0.409c0.599-0.227,1.211-0.465,1.806-0.7
			c3.757-1.496,7.358-3.172,10.785-5.027c0.555-0.29,1.083-0.595,1.611-0.895c0.599-0.329,1.193-0.667,1.776-1.018
			c1.442-0.883,2.884-1.775,4.295-2.692c0.065-0.05,0.141-0.102,0.214-0.146c0.89-0.599,1.758-1.212,2.63-1.86
			c1.078-0.769,2.145-1.592,3.208-2.426c0.035-0.038,0.074-0.064,0.104-0.09c1.478-1.16,2.934-2.364,4.37-3.636
			c0.879-0.779,1.747-1.571,2.585-2.39c0.125-0.115,0.238-0.22,0.359-0.335c1.881-1.845,3.676-3.771,5.402-5.776
			c0.105-0.115,0.2-0.229,0.295-0.354c0.364-0.424,0.712-0.848,1.057-1.282c0.305-0.363,0.584-0.738,0.878-1.106
			c0.055-0.074,0.105-0.14,0.16-0.216c1.272-1.651,2.545-3.328,3.751-5.033c0.115-0.155,0.239-0.319,0.335-0.488
			c1.171-1.711,2.294-3.473,3.371-5.289l0.03-0.054c1.078-1.801,2.101-3.662,3.078-5.559c2.405-4.664,4.365-9.528,5.813-14.57
			c0.788-2.685,1.557-5.379,2.15-8.122c0.499-2.281,0.948-4.621,1.076-6.959c0.01-0.15,0.01-0.309,0.01-0.47
			c0.251-0.712,0.406-1.462,0.47-2.24c0.311-3.332,0.415-6.675,0.504-9.997C826.279,165.98,825.875,161.201,825.117,156.467
			 M806.824,179.066c-0.051,0.459-0.056,0.923-0.02,1.387c-0.206,0.554-0.34,1.133-0.415,1.726
			c-0.589,4.35-1.667,8.591-3.089,12.742c-1.516,4.448-3.367,8.729-5.647,12.795c-1.058,1.897-2.199,3.746-3.462,5.543
			c-0.148,0.229-0.304,0.455-0.474,0.673c-1.296,1.886-2.704,3.709-4.195,5.463c-2.993,3.543-6.236,6.81-9.764,9.719
			c-0.747,0.618-1.516,1.231-2.289,1.826c-0.025,0.014-0.045,0.025-0.06,0.03c-0.974,0.747-1.966,1.449-2.999,2.134
			c-0.104,0.071-0.199,0.146-0.318,0.216c-0.924,0.638-1.867,1.243-2.819,1.819c-0.214,0.146-0.434,0.275-0.658,0.414
			c-0.439,0.271-0.877,0.534-1.337,0.779c-5.493,3.263-11.324,5.687-17.436,7.309c-0.373,0.114-0.759,0.21-1.138,0.304
			c-0.049,0.015-0.109,0.03-0.159,0.04c-0.898,0.234-1.796,0.438-2.694,0.635c-0.155,0.028-0.294,0.068-0.444,0.084l-0.015,0.006
			c-0.249,0.054-0.495,0.114-0.733,0.144c-0.299,0.064-0.604,0.13-0.902,0.176c-0.274,0.059-0.544,0.108-0.813,0.154
			c-0.061,0.005-0.12,0.02-0.176,0.025c-7.452,1.42-14.89,1.611-22.299,0.653c-0.404-0.026-0.807-0.061-1.218-0.11
			c-0.264-0.062-0.543-0.109-0.782-0.176c-0.011,0.006-0.021,0-0.021,0c-0.963-0.144-1.901-0.317-2.858-0.513
			c-0.005-0.016-0.03-0.016-0.045-0.01c-0.084-0.015-0.154-0.024-0.25-0.046c-0.787-0.14-1.571-0.298-2.345-0.465
			c-0.373-0.073-0.748-0.158-1.117-0.253c-0.349-0.08-0.693-0.159-1.057-0.255c-1.971-0.479-3.927-1.047-5.833-1.715
			c-0.474-0.16-0.962-0.321-1.432-0.516c-0.418-0.144-0.827-0.305-1.251-0.458c-0.062-0.025-0.125-0.046-0.205-0.081
			c-0.464-0.188-0.953-0.379-1.432-0.572c-0.409-0.17-0.818-0.34-1.228-0.523c-0.369-0.166-0.738-0.32-1.108-0.499
			c-0.313-0.142-0.638-0.29-0.947-0.439c-0.333-0.155-0.663-0.315-0.988-0.479c-0.548-0.266-1.071-0.539-1.605-0.823
			c-0.429-0.22-0.848-0.449-1.277-0.684c-0.294-0.141-0.589-0.29-0.883-0.444c-0.215-0.149-0.438-0.289-0.648-0.424
			c-0.034-0.02-0.055-0.03-0.074-0.055c-0.455-0.266-0.908-0.523-1.353-0.813l-0.08-0.039c-0.42-0.26-0.822-0.521-1.237-0.783
			c-0.095-0.058-0.189-0.124-0.285-0.189l-0.168-0.101c-0.006-0.015-0.011-0.021-0.021-0.025l-0.105-0.056
			c-0.029-0.034-0.074-0.06-0.104-0.078c-0.378-0.247-0.748-0.499-1.106-0.738c-0.016-0.025-0.041-0.046-0.065-0.056l-0.04-0.021
			c-0.159-0.104-0.319-0.214-0.479-0.333c-0.115-0.08-0.234-0.16-0.35-0.24c-0.069-0.055-0.15-0.1-0.229-0.155
			c-0.414-0.283-0.817-0.568-1.223-0.868c-4.864-3.442-9.174-7.418-12.965-11.902c-0.31-0.333-0.613-0.684-0.924-1.033
			c-0.135-0.193-0.27-0.394-0.413-0.583c-0.244-0.31-0.489-0.624-0.734-0.933c-0.269-0.315-0.529-0.623-0.787-0.942
			c-0.145-0.235-0.3-0.465-0.425-0.685c-0.009-0.004-0.02-0.01-0.02-0.01c-0.579-0.784-1.113-1.567-1.651-2.39
			c-0.06-0.08-0.109-0.159-0.18-0.249c-4.485-6.476-7.788-13.461-9.942-20.924c-0.09-0.248-0.175-0.513-0.255-0.783
			c-0.005-0.014-0.014-0.024-0.02-0.039c-0.016-0.11-0.056-0.215-0.075-0.324c-0.045-0.214-0.09-0.424-0.125-0.633
			c-0.06-0.215-0.118-0.45-0.164-0.673c-0.01-0.031-0.02-0.061-0.03-0.081c-0.309-1.207-0.584-2.42-0.823-3.652
			c-0.14-0.668-0.259-1.327-0.363-1.99c-0.016-0.05-0.025-0.095-0.029-0.135c-0.181-0.987-0.331-1.986-0.46-2.983
			c-0.08-0.484-0.145-0.992-0.195-1.481c-0.064-0.5-0.114-1.004-0.149-1.512c-0.015-0.14-0.034-0.269-0.034-0.4
			c-0.05-0.483-0.085-0.961-0.12-1.456c-0.03-0.359-0.045-0.724-0.064-1.078c0-0.029-0.005-0.044,0-0.063
			c-0.011-0.261-0.026-0.515-0.04-0.765c-0.02-0.383-0.041-0.763-0.055-1.152c-0.026-0.684-0.035-1.381-0.045-2.071
			c-0.011-0.598-0.005-1.202,0.015-1.805c0.004-0.515,0.024-1.022,0.04-1.521c0-0.031-0.005-0.065,0.004-0.105
			c0.025-1.342,0.095-2.699,0.186-4.06c0.085-0.5,0.165-0.999,0.244-1.452c0.189-1.656,0.435-3.308,0.744-4.949
			c0.045-0.234,0.089-0.475,0.139-0.724c0.743-3.946,1.821-7.832,3.232-11.604c0.006-0.025,0.016-0.043,0.03-0.065
			c0.538-1.506,1.133-2.993,1.776-4.456c0.186-0.407,0.369-0.813,0.55-1.221c0.173-0.389,0.354-0.773,0.553-1.162
			c0.214-0.439,0.429-0.873,0.644-1.317c0.345-0.693,0.703-1.382,1.088-2.07l0.004-0.011c0.229-0.424,0.465-0.853,0.709-1.267
			c0.125-0.225,0.269-0.464,0.414-0.698c0.145-0.229,0.284-0.464,0.414-0.694l0.18-0.318c0.125-0.205,0.254-0.409,0.379-0.609
			l0.33-0.524c0.043-0.07,0.09-0.149,0.139-0.209c0.05-0.065,0.09-0.134,0.125-0.205c0.18-0.279,0.354-0.559,0.534-0.824
			c0.18-0.269,0.364-0.543,0.538-0.808l0.046-0.069c0.468-0.718,0.962-1.422,1.481-2.11c0.424-0.598,0.868-1.183,1.327-1.765
			c0.283-0.389,0.578-0.759,0.887-1.123c0.484-0.604,0.982-1.188,1.482-1.78c0.499-0.585,1.008-1.153,1.527-1.727
			c1.127-1.248,2.308-2.45,3.531-3.606c0.249-0.225,0.488-0.455,0.723-0.689c0.155-0.145,0.314-0.309,0.484-0.444
			c2.195-2.045,4.51-3.931,6.954-5.672c0.415-0.304,0.828-0.594,1.242-0.877c0.2-0.135,0.399-0.28,0.619-0.409
			c0.299-0.221,0.613-0.419,0.933-0.634c0.104-0.071,0.205-0.135,0.314-0.2c1.078-0.708,2.17-1.387,3.287-2.02
			c0.839-0.49,1.691-0.964,2.55-1.397c0.668-0.37,1.347-0.699,2.035-1.038c1.032-0.514,2.091-0.998,3.168-1.441
			c0.425-0.195,0.844-0.374,1.271-0.544c0.668-0.29,1.347-0.559,2.035-0.809c1.059-0.414,2.131-0.797,3.219-1.142
			c0.094-0.03,0.179-0.07,0.273-0.095c0.21-0.08,0.43-0.145,0.654-0.214c0.435-0.135,0.868-0.264,1.297-0.384l0.021-0.005
			c0.219-0.08,0.454-0.145,0.698-0.2c0.145-0.045,0.294-0.099,0.454-0.124c0.044-0.011,0.089-0.02,0.135-0.035
			c0.04-0.021,0.075-0.029,0.104-0.04c0.04-0.011,0.09-0.02,0.135-0.025c0.021-0.015,0.045-0.011,0.06-0.015
			c0.154-0.04,0.314-0.094,0.484-0.129c0.04-0.004,0.079-0.02,0.115-0.04c0.532-0.15,1.092-0.289,1.636-0.414
			c0.738-0.19,1.496-0.349,2.244-0.509c0.754-0.16,1.497-0.304,2.251-0.429c0.443-0.085,0.877-0.15,1.316-0.199
			c0.34-0.064,0.674-0.114,1.003-0.16c0.538-0.084,1.072-0.145,1.602-0.205c0.149-0.025,0.283-0.035,0.424-0.045
			c0.244-0.036,0.494-0.06,0.749-0.084c0.338-0.045,0.678-0.074,1.017-0.095c0.229-0.03,0.465-0.045,0.678-0.06
			c0.28-0.025,0.561-0.05,0.829-0.065c0.334-0.03,0.664-0.05,0.993-0.07c0.175-0.005,0.354-0.021,0.519-0.015
			c0.663-0.055,1.322-0.07,1.976-0.085c0.06-0.01,0.1-0.015,0.145,0c0.653-0.015,1.322-0.025,1.971-0.01
			c0.244-0.005,0.474,0,0.709,0.004c0.384-0.004,0.788,0.015,1.172,0.025c0.434,0,0.863,0.026,1.287,0.05
			c2.974,0.104,5.902,0.399,8.795,0.868l0.005,0.005c0.404,0.064,0.788,0.125,1.178,0.205c1.506,0.264,3.013,0.584,4.505,0.968
			c0.334,0.075,0.669,0.164,1.002,0.249c0.254,0.065,0.494,0.125,0.743,0.19c0.245,0.06,0.489,0.14,0.739,0.214
			c0.647,0.174,1.291,0.364,1.926,0.559c0.384,0.114,0.773,0.239,1.142,0.373c0.613,0.195,1.223,0.399,1.821,0.62
			c0.574,0.195,1.148,0.409,1.711,0.643c0.299,0.1,0.594,0.224,0.888,0.334c0.39,0.15,0.773,0.305,1.147,0.47
			c0.051,0.015,0.09,0.04,0.135,0.049c0.435,0.186,0.868,0.359,1.317,0.563c0.729,0.305,1.446,0.625,2.15,0.963
			c0.05,0.029,0.104,0.065,0.164,0.084c0.329,0.159,0.669,0.319,0.993,0.484c0.204,0.104,0.403,0.2,0.607,0.304
			c0.151,0.06,0.291,0.129,0.43,0.209c0.13,0.075,0.274,0.145,0.409,0.229c0.289,0.136,0.574,0.285,0.859,0.439l0.114,0.065
			c0.563,0.309,1.107,0.613,1.67,0.923c0.265,0.159,0.54,0.313,0.804,0.478c0.52,0.304,1.053,0.623,1.557,0.954
			c1.661,1.012,3.272,2.125,4.819,3.296c0.15,0.096,0.295,0.21,0.43,0.31c0.443,0.324,0.862,0.659,1.286,0.993
			c0.31,0.239,0.613,0.489,0.923,0.733c0.264,0.22,0.523,0.434,0.784,0.648c0.394,0.324,0.768,0.659,1.147,0.979
			c0.398,0.339,0.768,0.668,1.142,1.017c1.018,0.903,2.006,1.847,2.944,2.824c0.482,0.489,0.962,0.972,1.42,1.467
			c1.567,1.626,3.045,3.337,4.416,5.104c0.684,0.828,1.321,1.686,1.955,2.553l0.006,0.016c3.008,4.174,5.551,8.64,7.656,13.41
			c1.607,3.546,2.899,7.158,3.912,10.84c0.01,0.074,0.024,0.145,0.06,0.214c0.041,0.145,0.081,0.284,0.12,0.439
			c0.006,0.084,0.03,0.155,0.056,0.219c0.034,0.125,0.063,0.26,0.099,0.385C807.208,160.638,807.781,169.697,806.824,179.066"/>
		<path fill="#F58A1F" d="M689.387,334.525c0,8.906-2.374,15.905-7.139,21.007c-4.754,5.104-11.279,7.654-19.561,7.654
			c-8.306,0-14.832-2.579-19.562-7.748c-4.733-5.163-7.104-12.131-7.104-20.913c0-8.849,2.37-15.843,7.104-20.982
			c4.729-5.143,11.256-7.713,19.562-7.713c8.281,0,14.807,2.561,19.561,7.674C687.013,318.617,689.387,325.631,689.387,334.525
			 M675.109,334.491c0-3.278-0.334-6.071-1.013-8.376c-0.68-2.306-1.587-4.201-2.719-5.677c-1.183-1.502-2.52-2.58-4.016-3.237
			c-1.492-0.65-3.034-0.979-4.636-0.979c-1.705,0-3.247,0.303-4.623,0.907c-1.388,0.604-2.714,1.682-3.997,3.232
			c-1.132,1.432-2.05,3.328-2.754,5.698c-0.703,2.369-1.058,5.188-1.058,8.465c0,3.378,0.34,6.187,1.003,8.411
			c0.664,2.236,1.576,4.101,2.734,5.606c1.187,1.528,2.528,2.621,4.03,3.273c1.507,0.654,3.054,0.979,4.664,0.979
			c1.627,0,3.203-0.349,4.734-1.053c1.521-0.702,2.845-1.79,3.957-3.272c1.177-1.603,2.09-3.472,2.732-5.602
			C674.795,340.731,675.109,337.943,675.109,334.491"/>
		<path fill="#F58A1F" d="M735.725,362.042h-13.016v-20.599c0-1.677-0.07-3.348-0.204-5.009c-0.141-1.665-0.395-2.894-0.765-3.682
			c-0.443-0.934-1.081-1.611-1.92-2.016c-0.834-0.409-1.955-0.609-3.362-0.609c-1.058,0-2.131,0.195-3.219,0.589
			c-1.086,0.399-2.243,1.022-3.476,1.891v29.435h-12.941v-41.531h12.941v4.59c2.119-1.801,4.185-3.208,6.19-4.216
			c2.01-1.013,4.239-1.517,6.68-1.517c4.241,0,7.479,1.337,9.724,4.01c2.244,2.68,3.367,6.552,3.367,11.634V362.042z"/>
		<rect x="745.299" y="304.494" fill="#F58A1F" width="12.94" height="57.545"/>
		<path fill="#F58A1F" d="M781.473,314.597h-13.684v-10.092h13.684V314.597z M781.099,362.039h-12.94v-41.531h12.94V362.039z"/>
		<path fill="#F58A1F" d="M829.911,362.042h-13.015v-20.599c0-1.677-0.071-3.348-0.2-5.009c-0.14-1.665-0.396-2.894-0.764-3.682
			c-0.444-0.934-1.088-1.611-1.926-2.016c-0.833-0.409-1.956-0.609-3.356-0.609c-1.063,0-2.136,0.195-3.223,0.589
			c-1.089,0.399-2.24,1.022-3.479,1.891v29.435h-12.94v-41.531h12.94v4.59c2.125-1.801,4.187-3.208,6.197-4.216
			c2.01-1.013,4.235-1.517,6.675-1.517c4.245,0,7.482,1.337,9.723,4.01c2.245,2.68,3.367,6.552,3.367,11.634V362.042z"/>
		<path fill="#F58A1F" d="M860.757,363.151c-7.848,0-13.854-1.87-18.034-5.621c-4.182-3.747-6.261-9.085-6.261-16.01
			c0-6.784,1.94-12.191,5.836-16.237c3.896-4.042,9.344-6.066,16.349-6.066c6.355,0,11.141,1.717,14.348,5.143
			c3.202,3.428,4.809,8.336,4.809,14.717v4.66h-28.365c0.119,1.926,0.533,3.532,1.222,4.824c0.688,1.297,1.597,2.329,2.734,3.088
			c1.111,0.768,2.399,1.316,3.88,1.646c1.482,0.336,3.094,0.499,4.845,0.499c1.507,0,2.989-0.163,4.44-0.499
			c1.457-0.329,2.783-0.769,3.99-1.312c1.063-0.465,2.046-0.973,2.939-1.518c0.902-0.537,1.636-1.021,2.204-1.44h1.366v10.69
			c-1.057,0.419-2.024,0.803-2.902,1.163c-0.874,0.358-2.075,0.722-3.607,1.087c-1.4,0.373-2.853,0.664-4.345,0.872
			C864.718,363.047,862.896,363.151,860.757,363.151 M865.042,335.935c-0.074-2.739-0.708-4.821-1.901-6.246
			c-1.196-1.434-3.027-2.15-5.491-2.15c-2.516,0-4.486,0.752-5.902,2.259c-1.417,1.502-2.195,3.547-2.346,6.138H865.042z"/>
	</g>
</g>
</svg>
